{
    "asset" : {
        "generator" : "Khronos glTF Blender I/O v1.8.19",
        "version" : "2.0"
    },
    "scene" : 0,
    "scenes" : [
        {
            "name" : "Scene",
            "nodes" : [
                0
            ]
        }
    ],
    "nodes" : [
        {
            "mesh" : 0,
            "name" : "\u53f0\u706f02"
        }
    ],
    "materials" : [
        {
            "doubleSided" : true,
            "name" : "Mat3d66-804165-6-8949",
            "pbrMetallicRoughness" : {
                "baseColorFactor" : [
                    0.07843100279569626,
                    0.01176500041037798,
                    0.015685999765992165,
                    1
                ],
                "metallicFactor" : 0,
                "roughnessFactor" : 0.7440944910049438
            }
        },
        {
            "doubleSided" : true,
            "name" : "Mat3d66-804165-7-5465.002",
            "pbrMetallicRoughness" : {
                "baseColorFactor" : [
                    0.07843100279569626,
                    0.05490199849009514,
                    0.031373001635074615,
                    1
                ],
                "metallicFactor" : 0,
                "roughnessFactor" : 0.7834645509719849
            }
        },
        {
            "doubleSided" : true,
            "emissiveFactor" : [
                1,
                1,
                1
            ],
            "name" : "Mat3d66-804165-8-6567",
            "pbrMetallicRoughness" : {
                "baseColorFactor" : [
                    0.3921569883823395,
                    0.3921569883823395,
                    0.3921569883823395,
                    1
                ],
                "metallicFactor" : 0,
                "roughnessFactor" : 0.712598443031311
            }
        },
        {
            "doubleSided" : true,
            "emissiveFactor" : [
                1,
                1,
                1
            ],
            "name" : "Mat3d66-804165-9-7807",
            "pbrMetallicRoughness" : {
                "baseColorFactor" : [
                    0.9411770105361938,
                    0.8431370258331299,
                    0.756862998008728,
                    1
                ],
                "metallicFactor" : 0,
                "roughnessFactor" : 0.7677165269851685
            }
        }
    ],
    "meshes" : [
        {
            "name" : "Obj3d66-804165-2-19",
            "primitives" : [
                {
                    "attributes" : {
                        "POSITION" : 0,
                        "NORMAL" : 1,
                        "TEXCOORD_0" : 2
                    },
                    "indices" : 3,
                    "material" : 0
                },
                {
                    "attributes" : {
                        "POSITION" : 4,
                        "NORMAL" : 5,
                        "TEXCOORD_0" : 6
                    },
                    "indices" : 7,
                    "material" : 1
                },
                {
                    "attributes" : {
                        "POSITION" : 8,
                        "NORMAL" : 9,
                        "TEXCOORD_0" : 10
                    },
                    "indices" : 11,
                    "material" : 2
                },
                {
                    "attributes" : {
                        "POSITION" : 12,
                        "NORMAL" : 13,
                        "TEXCOORD_0" : 14
                    },
                    "indices" : 15,
                    "material" : 3
                }
            ]
        }
    ],
    "accessors" : [
        {
            "bufferView" : 0,
            "componentType" : 5126,
            "count" : 420,
            "max" : [
                0.07870399951934814,
                0.07417099922895432,
                0.07870399951934814
            ],
            "min" : [
                -0.07870402932167053,
                0.015323000028729439,
                -0.07870399951934814
            ],
            "type" : "VEC3"
        },
        {
            "bufferView" : 1,
            "componentType" : 5126,
            "count" : 420,
            "type" : "VEC3"
        },
        {
            "bufferView" : 2,
            "componentType" : 5126,
            "count" : 420,
            "type" : "VEC2"
        },
        {
            "bufferView" : 3,
            "componentType" : 5123,
            "count" : 2430,
            "type" : "SCALAR"
        },
        {
            "bufferView" : 4,
            "componentType" : 5126,
            "count" : 280,
            "max" : [
                0.08000001311302185,
                0.015323000028729439,
                0.07999998331069946
            ],
            "min" : [
                -0.08000001311302185,
                0,
                -0.07999998331069946
            ],
            "type" : "VEC3"
        },
        {
            "bufferView" : 5,
            "componentType" : 5126,
            "count" : 280,
            "type" : "VEC3"
        },
        {
            "bufferView" : 6,
            "componentType" : 5126,
            "count" : 280,
            "type" : "VEC2"
        },
        {
            "bufferView" : 7,
            "componentType" : 5123,
            "count" : 1590,
            "type" : "SCALAR"
        },
        {
            "bufferView" : 8,
            "componentType" : 5126,
            "count" : 1120,
            "max" : [
                0.11659899353981018,
                0.2714489996433258,
                0.11659902334213257
            ],
            "min" : [
                -0.11659899353981018,
                0.06770800054073334,
                -0.11659899353981018
            ],
            "type" : "VEC3"
        },
        {
            "bufferView" : 9,
            "componentType" : 5126,
            "count" : 1120,
            "type" : "VEC3"
        },
        {
            "bufferView" : 10,
            "componentType" : 5126,
            "count" : 1120,
            "type" : "VEC2"
        },
        {
            "bufferView" : 11,
            "componentType" : 5123,
            "count" : 5760,
            "type" : "SCALAR"
        },
        {
            "bufferView" : 12,
            "componentType" : 5126,
            "count" : 1760,
            "max" : [
                0.06000000238418579,
                0.19599099457263947,
                0.06000000238418579
            ],
            "min" : [
                -0.06000000238418579,
                0.05930599942803383,
                -0.06000000238418579
            ],
            "type" : "VEC3"
        },
        {
            "bufferView" : 13,
            "componentType" : 5126,
            "count" : 1760,
            "type" : "VEC3"
        },
        {
            "bufferView" : 14,
            "componentType" : 5126,
            "count" : 1760,
            "type" : "VEC2"
        },
        {
            "bufferView" : 15,
            "componentType" : 5123,
            "count" : 6144,
            "type" : "SCALAR"
        }
    ],
    "bufferViews" : [
        {
            "buffer" : 0,
            "byteLength" : 5040,
            "byteOffset" : 0
        },
        {
            "buffer" : 0,
            "byteLength" : 5040,
            "byteOffset" : 5040
        },
        {
            "buffer" : 0,
            "byteLength" : 3360,
            "byteOffset" : 10080
        },
        {
            "buffer" : 0,
            "byteLength" : 4860,
            "byteOffset" : 13440
        },
        {
            "buffer" : 0,
            "byteLength" : 3360,
            "byteOffset" : 18300
        },
        {
            "buffer" : 0,
            "byteLength" : 3360,
            "byteOffset" : 21660
        },
        {
            "buffer" : 0,
            "byteLength" : 2240,
            "byteOffset" : 25020
        },
        {
            "buffer" : 0,
            "byteLength" : 3180,
            "byteOffset" : 27260
        },
        {
            "buffer" : 0,
            "byteLength" : 13440,
            "byteOffset" : 30440
        },
        {
            "buffer" : 0,
            "byteLength" : 13440,
            "byteOffset" : 43880
        },
        {
            "buffer" : 0,
            "byteLength" : 8960,
            "byteOffset" : 57320
        },
        {
            "buffer" : 0,
            "byteLength" : 11520,
            "byteOffset" : 66280
        },
        {
            "buffer" : 0,
            "byteLength" : 21120,
            "byteOffset" : 77800
        },
        {
            "buffer" : 0,
            "byteLength" : 21120,
            "byteOffset" : 98920
        },
        {
            "buffer" : 0,
            "byteLength" : 14080,
            "byteOffset" : 120040
        },
        {
            "buffer" : 0,
            "byteLength" : 12288,
            "byteOffset" : 134120
        }
    ],
    "buffers" : [
        {
            "byteLength" : 146408,
            "uri" : "data:application/octet-stream;base64,"
        }
    ]
}
